<?xml version="1.0" standalone="no"?>
<!DOCTYPE svg PUBLIC "-//W3C//DTD SVG 20010904//EN"
 "http://www.w3.org/TR/2001/REC-SVG-20010904/DTD/svg10.dtd">
<svg version="1.0" xmlns="http://www.w3.org/2000/svg"
 width="260.000000pt" height="260.000000pt" viewBox="0 0 260.000000 260.000000"
 preserveAspectRatio="xMidYMid meet">
<metadata>
Created by potrace 1.11, written by Peter Selinger 2001-2013
</metadata>
<g transform="translate(0.000000,260.000000) scale(0.100000,-0.100000)"
fill="#000000" stroke="none">
<path d="M1292 2588 c-6 -6 -25 -11 -42 -10 -16 0 -30 -4 -30 -9 0 -5 -5 -9
-11 -9 -5 0 -8 4 -4 10 3 5 -7 3 -21 -5 -15 -8 -32 -11 -37 -8 -6 3 -7 1 -3
-5 6 -11 -13 -17 -37 -13 -5 1 -6 -3 -2 -9 3 -5 -1 -10 -9 -10 -9 0 -16 -3
-16 -8 0 -4 -13 -13 -30 -20 -16 -8 -30 -21 -30 -30 0 -8 -3 -12 -6 -9 -4 4
-15 -3 -25 -15 -11 -11 -19 -17 -19 -12 0 5 -6 2 -13 -6 -7 -8 -24 -21 -39
-29 -15 -8 -25 -18 -22 -23 3 -4 0 -8 -6 -8 -6 0 -18 -7 -27 -15 -8 -8 -19
-12 -25 -9 -7 4 -8 2 -4 -4 4 -7 1 -12 -8 -12 -9 0 -16 -4 -16 -10 0 -5 -9
-10 -20 -10 -11 0 -20 -7 -20 -15 0 -8 -7 -15 -16 -15 -8 0 -12 -4 -9 -10 4
-6 -5 -10 -20 -10 -15 0 -24 -4 -20 -10 4 -6 -7 -10 -25 -10 -18 0 -29 -4 -25
-10 4 -6 -5 -10 -19 -10 -14 0 -26 -4 -26 -10 0 -5 -13 -10 -30 -10 -16 0 -30
-4 -30 -8 0 -4 -11 -9 -26 -10 -14 -1 -34 -6 -44 -12 -10 -5 -29 -10 -42 -10
-13 0 -30 -6 -37 -12 -11 -11 -12 -10 -6 2 6 12 5 13 -6 3 -7 -7 -27 -13 -44
-13 -17 0 -37 -6 -44 -12 -11 -11 -12 -10 -6 0 6 11 3 11 -11 2 -14 -9 -20
-26 -22 -68 -2 -30 -8 -64 -13 -74 -5 -10 -6 -24 -2 -31 11 -18 13 -38 2 -31
-6 3 -8 -5 -5 -20 3 -15 0 -26 -6 -26 -7 0 -6 -5 1 -14 7 -8 8 -17 3 -20 -4
-2 -7 -19 -6 -35 1 -18 -3 -31 -9 -31 -8 0 -8 -3 -2 -8 16 -11 18 -44 3 -53
-10 -7 -10 -9 0 -9 6 0 12 -5 12 -11 0 -5 -4 -7 -10 -4 -5 3 -10 1 -10 -4 0
-6 3 -11 8 -11 4 0 8 -18 9 -40 0 -24 -3 -40 -10 -40 -8 0 -7 -3 1 -9 9 -5 14
-29 13 -69 0 -34 4 -64 10 -67 5 -4 9 -12 9 -18 0 -7 -4 -6 -10 3 -7 12 -9 10
-7 -7 0 -12 5 -19 9 -17 6 4 13 -75 11 -133 -1 -7 3 -11 7 -8 6 4 8 -10 13
-82 0 -12 5 -19 9 -17 7 5 10 -15 11 -73 0 -12 4 -20 9 -17 4 3 6 10 3 15 -4
5 -1 9 4 9 10 0 16 -44 12 -79 -2 -7 2 -10 8 -6 7 4 11 -7 11 -30 0 -23 4 -34
11 -30 6 4 10 1 8 -6 -4 -32 2 -60 11 -54 6 4 10 -5 10 -19 0 -14 5 -26 11
-26 5 0 8 -4 5 -8 -3 -5 2 -21 10 -36 7 -16 14 -36 14 -45 0 -14 2 -14 10 -1
7 11 10 7 10 -18 0 -20 4 -31 10 -27 6 3 10 -2 10 -13 0 -10 9 -28 20 -40 11
-12 20 -28 20 -37 0 -8 5 -15 10 -15 6 0 10 -7 10 -16 0 -8 4 -12 10 -9 6 3
10 -1 10 -10 0 -9 11 -27 25 -41 14 -14 22 -30 19 -36 -4 -7 -2 -8 4 -4 7 4
12 1 12 -6 0 -8 9 -20 20 -28 11 -8 20 -20 20 -28 0 -7 5 -10 10 -7 6 3 10 -1
10 -10 0 -9 5 -13 10 -10 9 6 14 -8 11 -28 -1 -5 3 -6 9 -2 5 3 10 -2 10 -12
0 -15 2 -16 10 -3 8 13 10 12 10 -3 0 -12 4 -16 13 -11 7 5 7 2 -2 -10 -12
-15 -12 -17 0 -14 8 2 13 -3 11 -10 -1 -6 4 -11 10 -10 7 2 12 -3 10 -10 -1
-8 2 -11 8 -7 5 3 10 1 10 -5 0 -6 4 -9 8 -6 4 2 18 -9 31 -25 13 -16 29 -29
36 -29 6 0 25 -12 41 -28 43 -40 69 -59 60 -44 -11 18 2 15 26 -8 12 -11 30
-20 40 -20 11 0 17 -4 14 -9 -3 -5 14 -15 39 -22 28 -8 40 -16 32 -21 -7 -5 2
-8 21 -8 18 0 31 -4 28 -8 -2 -4 7 -9 21 -10 14 -1 31 -6 37 -10 15 -12 145
-12 152 -1 3 5 20 9 37 9 24 0 28 3 17 10 -11 7 -7 10 18 10 20 0 31 4 27 10
-4 6 5 10 19 10 14 0 26 5 26 10 0 6 7 10 15 10 9 0 25 9 37 20 12 11 30 20
40 20 10 0 18 5 18 10 0 6 7 10 16 10 9 0 29 14 44 30 16 17 33 32 37 33 4 1
7 6 5 10 -1 5 2 6 7 3 9 -6 111 86 111 99 0 4 18 24 40 46 22 22 40 47 40 55
0 8 5 12 10 9 6 -3 10 1 10 9 0 9 4 16 8 16 5 0 15 11 22 25 7 13 18 22 23 18
6 -3 7 -1 3 5 -3 6 0 16 7 24 7 7 15 18 16 23 2 6 7 9 13 7 5 -1 7 1 5 5 -6
11 29 74 37 66 3 -3 6 6 6 20 0 15 5 27 10 27 6 0 10 9 10 20 0 11 5 20 10 20
6 0 10 9 10 21 0 11 5 17 10 14 6 -4 10 5 10 19 0 14 5 26 11 26 5 0 8 4 4 9
-3 5 2 16 10 24 11 12 12 17 2 20 -9 4 -9 6 1 6 6 1 12 10 12 21 0 11 5 20 10
20 6 0 10 14 10 30 0 17 5 30 10 30 6 0 9 3 9 8 -4 24 2 62 10 58 5 -3 9 4 9
17 2 40 9 62 21 59 6 -1 11 12 11 32 0 19 5 38 10 41 6 3 10 26 10 50 0 24 5
47 10 50 6 3 10 12 10 18 0 7 -4 6 -10 -3 -6 -9 -10 -10 -10 -3 0 6 5 15 10
18 6 4 8 9 6 13 -2 4 0 27 5 52 16 77 18 90 8 96 -5 3 -5 13 1 24 5 10 10 64
10 120 0 78 3 99 13 94 9 -6 9 -5 1 7 -7 8 -12 39 -12 69 0 178 -3 224 -12
210 -14 -22 -12 -3 3 21 10 17 10 23 0 26 -7 3 -13 9 -13 14 0 6 4 8 10 4 5
-3 3 7 -5 21 -8 15 -12 31 -9 36 3 5 2 8 -3 7 -31 -5 -103 3 -98 11 4 6 -8 10
-29 10 -20 0 -36 5 -36 10 0 6 -19 10 -42 10 -32 0 -39 3 -28 10 11 7 5 10
-23 10 -23 0 -36 4 -32 10 4 6 -7 10 -24 10 -17 0 -31 5 -31 10 0 6 -9 10 -21
10 -11 0 -17 5 -14 10 4 6 -5 10 -19 10 -14 0 -26 5 -26 10 0 6 -11 10 -25 10
-18 0 -23 4 -19 15 4 10 0 15 -15 15 -12 0 -21 5 -21 10 0 6 -7 10 -16 10 -9
0 -12 5 -8 12 4 6 3 8 -4 4 -6 -3 -22 5 -36 19 -14 14 -26 23 -26 20 0 -6 -17
7 -55 43 -13 12 -29 22 -35 22 -6 0 -8 5 -5 10 3 6 -3 10 -14 10 -11 0 -35 14
-53 30 -18 17 -38 30 -45 30 -7 0 -13 5 -13 10 0 6 -9 10 -20 10 -11 0 -20 5
-20 10 0 6 -8 10 -18 10 -10 0 -24 6 -31 13 -10 9 -12 9 -7 0 5 -9 -1 -8 -20
1 -14 8 -39 12 -56 9 -20 -3 -28 -1 -23 6 8 14 2 14 -13 -1z"/>
</g>
</svg>
